<svg width="31" height="31" viewBox="0 0 31 31" fill="none" xmlns="http://www.w3.org/2000/svg">
<path d="M2.97998 14.1201C2.97998 14.6533 3.37988 15.1045 4.03613 15.1045C4.354 15.1045 4.63086 14.9302 4.87695 14.7251L15.0693 6.18359C15.3462 5.9375 15.6641 5.9375 15.9409 6.18359L26.123 14.7251C26.3691 14.9302 26.646 15.1045 26.9639 15.1045C27.5586 15.1045 28.0098 14.7354 28.0098 14.1509C28.0098 13.8022 27.8765 13.5254 27.6099 13.3101L24.7285 10.8799V6.64502C24.7285 6.18359 24.4312 5.88623 23.98 5.88623H22.5957C22.1343 5.88623 21.8267 6.18359 21.8267 6.64502V8.44971L16.9458 4.33789C16.064 3.59961 14.9565 3.59961 14.0645 4.33789L3.37988 13.3101C3.11328 13.5356 2.97998 13.833 2.97998 14.1201ZM6.30225 23.3384C6.30225 24.8149 7.2251 25.6968 8.73242 25.6968H22.2573C23.7749 25.6968 24.6978 24.8149 24.6978 23.3384V15.5249L16.1255 8.33691C15.7358 7.99854 15.2539 8.00879 14.8643 8.33691L6.30225 15.5146V23.3384ZM18.1763 23.6255H12.8032V17.0322C12.8032 16.5503 13.1211 16.2427 13.603 16.2427H17.3867C17.8687 16.2427 18.1763 16.5503 18.1763 17.0322V23.6255Z" fill="#E6E6E6"/>
</svg>
