<svg width="31" height="31" viewBox="0 0 31 31" fill="none" xmlns="http://www.w3.org/2000/svg">
<path d="M21.9106 22.334H22.2075C23.998 22.334 25.1484 21.3599 25.1484 19.291V10.5425H19.9531C19.0068 10.5425 18.4224 9.95801 18.4224 9.021V3.50098H13.4404C11.5015 3.50098 10.4346 4.54932 10.4346 6.46045V6.90576H11.8633C13.3013 6.90576 14.3682 7.23975 15.3979 8.26953L20.6582 13.5298C21.6694 14.541 21.9106 15.6914 21.9106 17.0645V22.334ZM20.1943 9.29004H25C24.9629 8.98389 24.731 8.69629 24.3784 8.34375L20.6211 4.48438C20.2778 4.13184 19.9902 3.90918 19.6748 3.86279L19.6841 8.77051C19.6841 9.1416 19.8232 9.29004 20.1943 9.29004ZM8.8667 27.0933H17.5503C19.5356 27.0933 20.5562 26.0449 20.5562 24.0503V16.8511H13.96C12.7817 16.8511 12.1973 16.2666 12.1973 15.0791V8.25098H8.8667C6.88135 8.25098 5.85156 9.29932 5.85156 11.2939V24.0503C5.85156 26.0542 6.88135 27.0933 8.8667 27.0933ZM14.0527 15.4966H20.3892C20.2871 15.0977 20.0459 14.7266 19.6191 14.2905L14.7393 9.32715C14.3125 8.89111 13.9414 8.60352 13.5518 8.49219V14.9863C13.5518 15.3203 13.728 15.4966 14.0527 15.4966Z" fill="#E6E6E6"/>
</svg>
